Video
ID                                       : 1
Format                                   : AVC
Format/Info                              : Advanced Video Codec
Format profile                           : High@L3.0
Format settings, CABAC                   : Yes
Format settings, ReFrames                : 4 frames
Codec ID                                 : avc1
Codec ID/Info                            : Advanced Video Coding
Duration                                 : 59mn 2s
Bit rate                                 : 1 568 Kbps
Maximum bit rate                         : 9 578 Kbps
Width                                    : 704 pixels
Height                                   : 560 pixels
Display aspect ratio                     : 1.85:1
Frame rate mode                          : Constant
Frame rate                               : 25.000 fps
Color space                              : YUV
Chroma subsampling                       : 4:2:0
Bit depth                                : 8 bits
Scan type                                : Progressive
Bits/(Pixel*Frame)                       : 0.159
Stream size                              : 662 MiB (95%)
Title                                    : Video
Writing library                          : x264

Audio
ID                                       : 2
Format                                   : AAC
Format/Info                              : Advanced Audio Codec
Format profile                           : HE-AAC / LC
Codec ID                                 : 40
Duration                                 : 59mn 2s
Bit rate mode                            : Variable
Bit rate                                 : 86.5 Kbps
Maximum bit rate                         : 126 Kbps
Channel(s)                               : 6 channels
Channel positions                        : Front: L C R, Side: L R, LFE
Sampling rate                            : 48.0 KHz / 24.0 KHz
Compression mode                         : Lossy
Delay relative to video                  : 80ms
Stream size                              : 36.5 MiB (5%)
Language                                 : English
Subtitle                                 : Estonia (.SRT)